<?xml version="1.0" standalone="no"?><!DOCTYPE svg PUBLIC "-//W3C//DTD SVG 1.1//EN" "http://www.w3.org/Graphics/SVG/1.1/DTD/svg11.dtd"><svg class="icon" width="200px" height="200.00px" viewBox="0 0 1024 1024" version="1.1" xmlns="http://www.w3.org/2000/svg"><path fill="#333333" d="M512 72.00000031C267.99999969 72.00000031 72.00000031 267.99999969 72.00000031 512s196.00000031 439.99999969 439.99999969 439.99999969 439.99999969-196.00000031 439.99999969-439.99999969S756.00000031 72.00000031 512 72.00000031z m180 480h-139.99999969v139.99999969c0 22.00000031-18 40.00000031-40.00000031 40.00000031s-40.00000031-18-40.00000031-40.00000031v-139.99999969h-139.99999969c-22.00000031 0-40.00000031-18-40.00000031-40.00000031s18-40.00000031 40.00000031-40.00000031h139.99999969v-139.99999969c0-22.00000031 18-40.00000031 40.00000031-40.00000031s40.00000031 18 40.00000031 40.00000031v139.99999969h139.99999969c22.00000031 0 40.00000031 18 40.00000031 40.00000031s-18 40.00000031-40.00000031 40.00000031z"  /></svg>